<?xml version="1.0" encoding="UTF-8"?>
<svg xmlns="http://www.w3.org/2000/svg" viewBox="0 0 480 360" role="img" aria-label="whatsapp cover">
  <defs>
    <linearGradient id="whatsapp-bg" x1="0" y1="0" x2="1" y2="1">
      <stop offset="0%" stop-color="#0b1016"/>
      <stop offset="55%" stop-color="#121820"/>
      <stop offset="100%" stop-color="#0e1412"/>
    </linearGradient>
    <radialGradient id="whatsapp-glow" cx="72%" cy="18%" r="55%">
      <stop offset="0%" stop-color="#25d366" stop-opacity="0.45"/>
      <stop offset="100%" stop-color="#25d366" stop-opacity="0"/>
    </radialGradient>
    <linearGradient id="whatsapp-panel" x1="0" y1="0" x2="0" y2="1">
      <stop offset="0%" stop-color="#1c2430"/>
      <stop offset="100%" stop-color="#141a22"/>
    </linearGradient>
    <filter id="whatsapp-soft" x="-20%" y="-20%" width="140%" height="140%">
      <feDropShadow dx="0" dy="8" stdDeviation="12" flood-color="#000" flood-opacity="0.45"/>
    </filter>
  </defs>
  <rect width="480" height="360" fill="url(#whatsapp-bg)"/>
  <rect width="480" height="360" fill="url(#whatsapp-glow)"/>
  <g opacity="0.18" stroke="#25d366" stroke-width="1" fill="none">
    <path d="M-20 280 C80 220 160 320 260 250 S420 180 520 230"/>
    <path d="M-20 310 C90 250 190 340 300 270 S430 210 520 260"/>
  </g>
  <circle cx="56" cy="48" r="70" fill="#25d366" opacity="0.08"/>
  <g filter="url(#whatsapp-soft)">
    <rect x="92" y="92" width="210" height="132" rx="22" fill="url(#whatsapp-panel)" stroke="#1f3d32"/>
    <rect x="112" y="114" width="132" height="12" rx="6" fill="#25d366"/>
    <rect x="112" y="138" width="170" height="10" rx="5" fill="#2a3d36"/>
    <rect x="112" y="158" width="148" height="10" rx="5" fill="#2a3d36"/>
    <path d="M140 224 L168 204 L210 204" fill="#25d366"/>
    <rect x="248" y="196" width="168" height="92" rx="22" fill="#102018" stroke="#25d36666"/>
    <rect x="268" y="218" width="128" height="10" rx="5" fill="#86efac"/>
    <rect x="268" y="238" width="96" height="10" rx="5" fill="#2a3d36"/>
    <circle cx="372" cy="112" r="28" fill="#25d366"/>
    <path d="M362 112 h20 m-10 -10 v20" stroke="#052e16" stroke-width="4" stroke-linecap="round"/>
    </g>
</svg>
